<svg xmlns="http://www.w3.org/2000/svg" viewBox="0 0 486.82 799.86"><defs><style>.cls-1{isolation:isolate;}.cls-2,.cls-7{fill:#03b9e2;}.cls-3,.cls-5{fill:#f21833;}.cls-4,.cls-6{fill:#fedb01;}.cls-5,.cls-6,.cls-7{fill-rule:evenodd;}</style></defs><title>Logo - A</title><g id="Rectangle_2" data-name="Rectangle 2" class="cls-1"><g id="Rectangle_2-2" data-name="Rectangle 2"><rect class="cls-2" width="486.82" height="799.86"/></g></g><g id="Ellipse_1_copy_2" data-name="Ellipse 1 copy 2" class="cls-1"><g id="Ellipse_1_copy_2-2" data-name="Ellipse 1 copy 2"><circle class="cls-3" cx="222.34" cy="214.42" r="81.01"/></g></g><g id="Ellipse_1_copy_3" data-name="Ellipse 1 copy 3" class="cls-1"><g id="Ellipse_1_copy_3-2" data-name="Ellipse 1 copy 3"><circle class="cls-4" cx="257.99" cy="214.42" r="81.01" transform="translate(41.26 470.47) rotate(-89.49)"/></g></g><g id="Shape_2_copy_3" data-name="Shape 2 copy 3" class="cls-1"><g id="Shape_2_copy_3-2" data-name="Shape 2 copy 3"><path class="cls-5" d="M183,756l26.4-245.12h34V313.66H225.58s-65.81-8.46-81,53.94c-10.47,43-63.47,244.91-95.39,366.23C69.5,755,117,778.65,183,756Z" transform="translate(0 0)"/></g></g><g id="Shape_2_copy_7" data-name="Shape 2 copy 7" class="cls-1"><g id="Shape_2_copy_7-2" data-name="Shape 2 copy 7"><path class="cls-6" d="M304,756.23c65.95,22.63,113.43-1.09,133.74-22.22-31.9-121.37-84.87-323.35-95.35-366.38-15.19-62.43-81-54-81-54H243.55V511h34Z" transform="translate(0 0)"/></g></g><g id="Shape_3_copy_5" data-name="Shape 3 copy 5" class="cls-1"><g id="Shape_3_copy_5-2" data-name="Shape 3 copy 5"><path class="cls-5" d="M375.43,492H338.25v-8.06c-41.24,36.88-107.36,78-205,91.36V691.93s138.36-19,262.94-116.28Z" transform="translate(0 0)"/></g></g><g id="Shape_4_copy_4" data-name="Shape 4 copy 4" class="cls-1"><g id="Shape_4_copy_4-2" data-name="Shape 4 copy 4"><path class="cls-7" d="M288.88,395.62a28,28,0,0,0-21.19-9.46c-9.19,0-17.16,4.34-23,12.57-.45.61-.86,1.23-1.24,1.84-.39-.61-.8-1.23-1.24-1.84-5.89-8.23-13.86-12.57-23-12.57a28,28,0,0,0-21.19,9.46,32.64,32.64,0,0,0-8,21.79c0,9,3.48,17.27,11,26.08,6.53,7.69,15.89,15.6,26.74,24.75,4,3.38,8.15,6.88,12.55,10.69a4.88,4.88,0,0,0,6.41,0c4.4-3.81,8.55-7.31,12.55-10.69,7-5.88,13-11,18.2-15.88,10.14-9.56,19.51-20.41,19.51-34.95A32.64,32.64,0,0,0,288.88,395.62Z" transform="translate(0 0)"/></g></g><g id="Shape_13" data-name="Shape 13" class="cls-1"><g id="Shape_13-2" data-name="Shape 13"><path class="cls-6" d="M179.18,71.63a24.49,24.49,0,0,0-2.31-.83q-5.56-1.69-11.13-3.34c-2.89-.86-5.79-1.68-8.67-2.56-2.66-.81-5.31-1.66-8-2.5a3.72,3.72,0,0,1-1.69-1.18c-.36-.43-.72-.86-1-1.31-2.09-2.95-4.18-5.89-6.25-8.85s-4-5.82-6.08-8.71c-1.42-2-2.88-4-4.33-6a7.81,7.81,0,0,0-.75-.87,2.22,2.22,0,0,0-.48-.31,3.8,3.8,0,0,0-.39.61c-.38,1-.77,2.1-1.09,3.17-1.78,5.94-3.53,11.89-5.32,17.82-.86,2.87-1.76,5.73-2.65,8.59a4.37,4.37,0,0,1-1.6,2.31c-1.19.86-2.35,1.77-3.55,2.62q-3,2.13-6,4.23c-2.65,1.85-5.31,3.69-8,5.55q-2.86,2-5.7,4Q93,85,91.93,85.91c-.38.32-.31.56.14.77s.83.35,1.26.49c2.44.76,4.89,1.52,7.35,2.25,3.53,1.06,7.06,2.08,10.59,3.14,3.19,1,6.36,2,9.56,2.87a6.88,6.88,0,0,1,4,2.81c1.47,2.18,3,4.29,4.56,6.44,3.26,4.65,6.51,9.32,9.78,14,1,1.4,2,2.76,3.1,4.11.42.54.71.49,1-.15.38-1,.73-2,1-3,1-3.34,2-6.67,3-10,.58-2,1.13-3.92,1.72-5.88,1-3.37,2.05-6.73,3.06-10.09a5.92,5.92,0,0,1,2.36-3.38c2.12-1.46,4.18-3,6.29-4.48,5-3.5,10-7,15-10.49,1.24-.87,2.43-1.8,3.62-2.73C179.81,72.17,179.75,71.86,179.18,71.63Z" transform="translate(0 0)"/></g></g><g id="Shape_13_copy" data-name="Shape 13 copy" class="cls-1"><g id="Shape_13_copy-2" data-name="Shape 13 copy"><path class="cls-6" d="M469.51,218.83c-.55-.47-1.1-.93-1.68-1.36q-4.14-3-8.29-6c-2.16-1.55-4.33-3.07-6.48-4.64-2-1.44-3.93-2.92-5.89-4.39A3.12,3.12,0,0,1,446.1,201c-.17-.46-.35-.93-.48-1.4-.89-3.05-1.78-6.11-2.65-9.17s-1.67-6-2.53-9c-.6-2.09-1.24-4.16-1.87-6.24a5.89,5.89,0,0,0-.36-.94,2.29,2.29,0,0,0-.31-.4,2.83,2.83,0,0,0-.51.4c-.62.76-1.25,1.52-1.82,2.32-3.2,4.42-6.38,8.86-9.59,13.29-1.55,2.13-3.12,4.25-4.69,6.37a3.86,3.86,0,0,1-2,1.46c-1.24.37-2.47.79-3.71,1.15-2.08.61-4.16,1.19-6.24,1.78-2.74.77-5.49,1.53-8.23,2.31-2,.56-3.95,1.12-5.91,1.71-.82.24-1.62.53-2.42.84-.4.15-.42.38-.1.68a9.38,9.38,0,0,0,.9.77c1.82,1.34,3.63,2.68,5.46,4,2.63,1.9,5.28,3.78,7.91,5.68,2.37,1.71,4.73,3.46,7.12,5.15a6.07,6.07,0,0,1,2.52,3.51c.6,2.24,1.3,4.45,1.93,6.68,1.37,4.81,2.72,9.63,4.1,14.44.41,1.46.9,2.89,1.38,4.32.2.57.45.61.84.15.6-.7,1.18-1.42,1.73-2.17q2.71-3.72,5.41-7.46c1-1.46,2.07-2.94,3.13-4.4,1.82-2.51,3.65-5,5.47-7.51a5.23,5.23,0,0,1,2.94-2.12c2.19-.6,4.35-1.29,6.53-1.91,5.17-1.47,10.34-2.91,15.5-4.38,1.29-.37,2.55-.8,3.81-1.23C469.88,219.47,469.92,219.19,469.51,218.83Z" transform="translate(0 0)"/></g></g><g id="Shape_13_copy_2" data-name="Shape 13 copy 2" class="cls-1"><g id="Shape_13_copy_2-2" data-name="Shape 13 copy 2"><path class="cls-6" d="M378.6,23.77c-1.39,0-2.77,0-4.15.13-7.65.54-15.3,1.13-23,1.68-3.7.26-7.4.47-11.1.7a5.4,5.4,0,0,1-3.38-.84c-1.52-1-3.07-1.94-4.58-3-2.53-1.68-5-3.4-7.54-5.11L315,10.6c-2.39-1.62-4.78-3.24-7.18-4.83-1-.66-2-1.27-3.08-1.84-.53-.3-.79-.11-.83.5a15.48,15.48,0,0,0,0,1.67c.2,3.17.39,6.33.62,9.5.32,4.55.68,9.09,1,13.64.29,4.11.52,8.22.86,12.33a8.55,8.55,0,0,1-1.5,5.88c-1.88,2.66-3.63,5.41-5.46,8.11-4,5.82-7.93,11.63-11.87,17.46-1.19,1.76-2.3,3.58-3.4,5.4-.44.72-.26,1,.59,1,1.3,0,2.6,0,3.9-.11q6.45-.42,12.91-.91c2.52-.18,5-.42,7.56-.6,4.34-.31,8.69-.58,13-.89a7.34,7.34,0,0,1,4.93,1.25c2.62,1.81,5.32,3.52,7.95,5.31,6.24,4.24,12.46,8.51,18.7,12.74,1.55,1,3.15,2,4.76,3,.65.4,1,.19,1-.57,0-1,0-2-.05-3q-.48-7.17-1-14.35c-.27-3.72-.59-7.44-.84-11.16-.23-3.44-.4-6.88-.59-10.32a4.56,4.56,0,0,1,.63-2.47c.33-.6.68-1.21,1.06-1.78q3.74-5.58,7.5-11.13c2.46-3.63,5-7.24,7.42-10.87,1.71-2.53,3.38-5.1,5-7.65a10.08,10.08,0,0,0,.68-1.25,3.13,3.13,0,0,0,.15-.69A4.17,4.17,0,0,0,378.6,23.77Z" transform="translate(0 0)"/></g></g><g id="Shape_16_copy_2" data-name="Shape 16 copy 2" class="cls-1"><g id="Shape_16_copy_2-2" data-name="Shape 16 copy 2"><path class="cls-6" d="M356.11,419.83,290.39,438S269.86,495.34,104,524.14L77.76,623.38c28.3-6.14,185-43,298.48-129.75Z" transform="translate(0 0)"/></g></g><g id="Shape_13_copy_3" data-name="Shape 13 copy 3" class="cls-1"><g id="Shape_13_copy_3-2" data-name="Shape 13 copy 3"><path class="cls-6" d="M79.06,196c-1.08,0-2.16,0-3.24.1-6,.42-11.93.88-17.9,1.31-2.88.2-5.77.37-8.65.54a4.19,4.19,0,0,1-2.64-.65c-1.18-.78-2.39-1.52-3.57-2.3-2-1.32-3.92-2.65-5.88-4-2.57-1.75-5.14-3.52-7.72-5.27-1.86-1.27-3.72-2.53-5.6-3.76-.77-.52-1.58-1-2.39-1.44-.42-.23-.62-.09-.65.39a11.28,11.28,0,0,0,0,1.3c.15,2.47.3,4.94.47,7.4.26,3.55.54,7.09.79,10.63.23,3.2.41,6.41.68,9.61a6.68,6.68,0,0,1-1.18,4.58c-1.46,2.08-2.82,4.22-4.25,6.32-3.08,4.54-6.19,9.06-9.26,13.61-.92,1.37-1.79,2.79-2.65,4.2-.34.56-.2.81.46.81,1,0,2,0,3-.08,3.36-.22,6.71-.46,10.07-.71,2-.14,3.93-.32,5.89-.46,3.39-.25,6.78-.46,10.16-.7a5.73,5.73,0,0,1,3.85,1c2,1.41,4.14,2.75,6.2,4.14,4.86,3.3,9.71,6.63,14.57,9.93,1.21.81,2.46,1.57,3.71,2.32.51.31.78.15.79-.44,0-.79,0-1.58,0-2.37q-.37-5.59-.78-11.18c-.22-2.9-.47-5.8-.66-8.7-.18-2.68-.31-5.36-.46-8a3.54,3.54,0,0,1,.49-1.93c.26-.47.53-.94.83-1.39,1.94-2.89,3.89-5.79,5.84-8.67s3.88-5.64,5.79-8.47c1.34-2,2.63-4,3.94-6a9.12,9.12,0,0,0,.53-1,2.75,2.75,0,0,0,.12-.54A2.91,2.91,0,0,0,79.06,196Z" transform="translate(0 0)"/></g></g></svg>