<svg xmlns="http://www.w3.org/2000/svg" viewBox="0 0 1905.09 961.07"><defs><style>.cls-1{isolation:isolate;}.cls-2,.cls-7{fill:#03b9e2;}.cls-3,.cls-5{fill:#f21833;}.cls-4,.cls-6{fill:#fedb01;}.cls-5,.cls-6,.cls-7,.cls-8{fill-rule:evenodd;}.cls-8{fill:#fff;}</style></defs><title>Logo - Blue Background</title><g id="Rectangle_2" data-name="Rectangle 2" class="cls-1"><g id="Rectangle_2-2" data-name="Rectangle 2"><rect class="cls-2" width="1905.09" height="959.07"/></g></g><g id="Ellipse_1_copy_2" data-name="Ellipse 1 copy 2" class="cls-1"><g id="Ellipse_1_copy_2-2" data-name="Ellipse 1 copy 2"><circle class="cls-3" cx="819.6" cy="216.49" r="81.01"/></g></g><g id="Ellipse_1_copy_3" data-name="Ellipse 1 copy 3" class="cls-1"><g id="Ellipse_1_copy_3-2" data-name="Ellipse 1 copy 3"><circle class="cls-4" cx="855.25" cy="214.42" r="81.01" transform="translate(633.15 1069.77) rotate(-89.49)"/></g></g><g id="Shape_2_copy_3" data-name="Shape 2 copy 3" class="cls-1"><g id="Shape_2_copy_3-2" data-name="Shape 2 copy 3"><path class="cls-5" d="M780.24,756l26.4-245.12h34V313.66H822.84s-65.81-8.46-81,53.94c-10.48,43-63.47,244.91-95.39,366.23C666.76,755,714.26,778.65,780.24,756Z" transform="translate(0 2.07)"/></g></g><g id="Shape_2_copy_7" data-name="Shape 2 copy 7" class="cls-1"><g id="Shape_2_copy_7-2" data-name="Shape 2 copy 7"><path class="cls-6" d="M901.21,756.23c65.95,22.63,113.43-1.09,133.74-22.22C1003,612.64,950.07,410.66,939.6,367.63c-15.19-62.43-81-54-81-54H840.81V511h34Z" transform="translate(0 2.07)"/></g></g><g id="Shape_3_copy_5" data-name="Shape 3 copy 5" class="cls-1"><g id="Shape_3_copy_5-2" data-name="Shape 3 copy 5"><path class="cls-5" d="M972.69,492H935.51v-8.06c-41.24,36.88-107.36,78-205,91.36V691.93s138.36-19,262.94-116.28Z" transform="translate(0 2.07)"/></g></g><g id="Shape_4_copy_4" data-name="Shape 4 copy 4" class="cls-1"><g id="Shape_4_copy_4-2" data-name="Shape 4 copy 4"><path class="cls-7" d="M886.14,395.62A28,28,0,0,0,865,386.16c-9.19,0-17.16,4.34-23.05,12.57-.44.61-.85,1.23-1.24,1.84-.38-.61-.8-1.23-1.24-1.84-5.88-8.23-13.85-12.57-23-12.57a28,28,0,0,0-21.19,9.46,32.59,32.59,0,0,0-8,21.79c0,9,3.48,17.27,11,26.08,6.53,7.69,15.9,15.6,26.74,24.75,4,3.38,8.15,6.88,12.56,10.69a4.88,4.88,0,0,0,6.41,0c4.4-3.81,8.54-7.31,12.55-10.69,7-5.88,13-11,18.2-15.88,10.13-9.56,19.51-20.41,19.51-34.95A32.64,32.64,0,0,0,886.14,395.62Z" transform="translate(0 2.07)"/></g></g><g id="sp_rks" data-name="sp  rks" class="cls-1"><g id="sp_rks-2" data-name="sp  rks"><path class="cls-8" d="M184.24,611.4a129.9,129.9,0,0,0-14-15.24L167.09,593a98.7,98.7,0,0,0-22.87-14.61q-15.89-8.89-31.44-16.2T85.16,547.89a38.71,38.71,0,0,1-12.71-8.25,22.37,22.37,0,0,1-6.35-12.07,10.94,10.94,0,0,1-.63-4.45q0-10.79,10.48-18.41t25.08-7a37.38,37.38,0,0,1,19.38,5.08q8.57,5.1,12.38,12.07L186.14,478a92.82,92.82,0,0,0-34.61-32.39q-21.92-12.06-49.23-13.34a101.44,101.44,0,0,0-39.37,6.36,103.13,103.13,0,0,0-32.08,19A93.52,93.52,0,0,0,8.94,486.29,84.74,84.74,0,0,0,.05,521.85a79.21,79.21,0,0,0,7,35.89,93.64,93.64,0,0,0,21,29.53l1.9,1.91v.63A120.77,120.77,0,0,0,50.22,604.1q10.8,6,21.92,11.43t21.91,10.16a216.16,216.16,0,0,1,19.69,9.85l-.64.63a25.85,25.85,0,0,1,5.72,2.54q12.06,7,16.51,17.79a5.16,5.16,0,0,1,.64,2.22,5.13,5.13,0,0,0,.63,2.22v1.27a22.42,22.42,0,0,1,.64,6.35q0,14.63-12.39,24.46a42.29,42.29,0,0,1-28.9,9.2q-14.61,0-25.4-7.93t-14-19.38L2,713a97.29,97.29,0,0,0,37.16,38.74q24.44,14.63,54.94,15.88A108.48,108.48,0,0,0,135.33,761a103.86,103.86,0,0,0,34.3-20.64,106.19,106.19,0,0,0,23.5-31.12,91.8,91.8,0,0,0,9.52-38.74A86.65,86.65,0,0,0,198.21,639,110.1,110.1,0,0,0,184.24,611.4Zm362-131.46a172.42,172.42,0,0,0-53.35-36.2,161.46,161.46,0,0,0-65.42-13.34,163.62,163.62,0,0,0-65.73,13.34,171.19,171.19,0,0,0-53.67,36.2,167.9,167.9,0,0,0-35.89,53.35,164.77,164.77,0,0,0-13,65.41V959h65.42V731.44a179.08,179.08,0,0,0,47.64,26A159.49,159.49,0,0,0,427.48,767a161.45,161.45,0,0,0,65.42-13.33,171.38,171.38,0,0,0,89.55-89.55,167.06,167.06,0,0,0,0-130.83A172.3,172.3,0,0,0,546.25,479.94ZM522.12,638.4a105.56,105.56,0,0,1-54.94,54.93,97.29,97.29,0,0,1-39.7,8.26,100.51,100.51,0,0,1-39.69-7.94,101.8,101.8,0,0,1-32.71-21.91A106.31,106.31,0,0,1,332.85,639a97.21,97.21,0,0,1-8.26-39.69v-.64A100.55,100.55,0,0,1,332.53,559a102,102,0,0,1,21.91-32.71,106.66,106.66,0,0,1,32.71-22.23,98.94,98.94,0,0,1,40.33-8.25,97.45,97.45,0,0,1,39.7,8.25A105.53,105.53,0,0,1,522.12,559a99.62,99.62,0,0,1,0,79.39Zm1378.46.63a110.13,110.13,0,0,0-14-27.63,129.92,129.92,0,0,0-14-15.24l-3.18-3.17a98.65,98.65,0,0,0-22.86-14.61q-15.88-8.89-31.44-16.2t-27.63-14.29a38.56,38.56,0,0,1-12.7-8.25,22.3,22.3,0,0,1-6.35-12.07,10.73,10.73,0,0,1-.64-4.45q0-10.79,10.48-18.41t25.09-7a37.31,37.31,0,0,1,19.37,5.08q8.58,5.1,12.39,12.07L1888.51,478a92.93,92.93,0,0,0-34.62-32.39q-21.9-12.06-49.22-13.34a101.52,101.52,0,0,0-39.38,6.36,103.19,103.19,0,0,0-32.07,19,93.52,93.52,0,0,0-21.91,28.58,84.59,84.59,0,0,0-8.89,35.56,79.33,79.33,0,0,0,7,35.89,93.8,93.8,0,0,0,21,29.53l1.91,1.91v.63a120.77,120.77,0,0,0,20.32,14.29q10.8,6,21.91,11.43t21.92,10.16a214.63,214.63,0,0,1,19.68,9.85l-.63.63a26.06,26.06,0,0,1,5.72,2.54q12,7,16.51,17.79a5.13,5.13,0,0,1,.63,2.22,5,5,0,0,0,.64,2.22v1.27a22.51,22.51,0,0,1,.63,6.35q0,14.63-12.38,24.46a42.31,42.31,0,0,1-28.9,9.2q-14.61,0-25.4-7.93t-14-19.38L1704.32,713a97.29,97.29,0,0,0,37.16,38.74q24.43,14.63,54.94,15.88A108.51,108.51,0,0,0,1837.7,761a103.86,103.86,0,0,0,34.3-20.64,106,106,0,0,0,23.49-31.12,91.66,91.66,0,0,0,9.53-38.74A86.65,86.65,0,0,0,1900.58,639ZM1628.75,432.3h-80.66l-66.69,92.1-1.27-1.28V310h-65.42V765.73h65.42V635.54l1.27-1.27,97.17,133.37h80.66l-137.82-188Zm-296,23.74a144.91,144.91,0,0,0-37.47-18,144.25,144.25,0,0,0-85.11,0,144.91,144.91,0,0,0-37.47,18V431.67h-65.42V765.73h65.42V577.11a77.27,77.27,0,0,1,6.35-31.12,80.39,80.39,0,0,1,42.56-42.55,79.62,79.62,0,0,1,68.91,3.17A79.88,79.88,0,0,1,1318.81,532l14-11.44,36.84-29.27A138.53,138.53,0,0,0,1332.78,456Z" transform="translate(0 2.07)"/></g></g><g id="Shape_13" data-name="Shape 13" class="cls-1"><g id="Shape_13-2" data-name="Shape 13"><path class="cls-6" d="M776.43,71.63a24.31,24.31,0,0,0-2.3-.83q-5.57-1.69-11.13-3.34c-2.89-.86-5.79-1.68-8.67-2.56-2.66-.81-5.31-1.66-8-2.5a3.67,3.67,0,0,1-1.69-1.18c-.36-.43-.72-.86-1-1.31-2.09-2.95-4.18-5.89-6.26-8.85s-4-5.82-6.08-8.71c-1.42-2-2.88-4-4.33-6a7.72,7.72,0,0,0-.74-.87,2.22,2.22,0,0,0-.48-.31,3.21,3.21,0,0,0-.39.61c-.38,1-.77,2.1-1.09,3.17-1.79,5.94-3.54,11.89-5.32,17.82-.86,2.87-1.76,5.73-2.66,8.59a4.26,4.26,0,0,1-1.6,2.31c-1.19.86-2.35,1.77-3.54,2.62-2,1.42-4,2.83-6,4.23l-8,5.55c-1.91,1.33-3.82,2.68-5.71,4-.78.57-1.54,1.17-2.27,1.8-.38.32-.31.56.14.77s.83.35,1.25.49c2.45.76,4.9,1.52,7.36,2.25,3.52,1.06,7.06,2.08,10.59,3.14,3.18,1,6.36,2,9.56,2.87a6.88,6.88,0,0,1,4,2.81c1.47,2.18,3,4.29,4.56,6.44,3.26,4.65,6.5,9.32,9.78,14,1,1.4,2,2.76,3.1,4.11.42.54.71.49,1-.15.38-1,.74-2,1-3,1-3.34,2-6.67,3-10,.58-2,1.13-3.92,1.72-5.88,1-3.37,2.05-6.73,3.05-10.09a6,6,0,0,1,2.36-3.38c2.12-1.46,4.19-3,6.3-4.48,5-3.5,10-7,15-10.49,1.24-.87,2.43-1.8,3.62-2.73C777.07,72.17,777,71.86,776.43,71.63Z" transform="translate(0 2.07)"/></g></g><g id="Shape_13_copy" data-name="Shape 13 copy" class="cls-1"><g id="Shape_13_copy-2" data-name="Shape 13 copy"><path class="cls-6" d="M1066.76,218.83c-.54-.47-1.09-.93-1.67-1.36q-4.14-3-8.3-6c-2.15-1.55-4.32-3.07-6.47-4.64-2-1.44-3.93-2.92-5.9-4.39a3.17,3.17,0,0,1-1.06-1.46c-.18-.46-.35-.93-.49-1.4-.88-3.05-1.77-6.11-2.64-9.17s-1.67-6-2.53-9c-.6-2.09-1.24-4.16-1.87-6.24a7.06,7.06,0,0,0-.37-.94,1.8,1.8,0,0,0-.3-.4,2.83,2.83,0,0,0-.51.4c-.62.76-1.25,1.52-1.83,2.32-3.2,4.42-6.38,8.86-9.58,13.29-1.55,2.13-3.13,4.25-4.7,6.37a3.78,3.78,0,0,1-2,1.46c-1.24.37-2.46.79-3.71,1.15-2.07.61-4.15,1.19-6.23,1.78-2.74.77-5.49,1.53-8.23,2.31-2,.56-4,1.12-5.92,1.71-.81.24-1.62.53-2.41.84-.41.15-.42.38-.11.68a9.5,9.5,0,0,0,.91.77c1.81,1.34,3.63,2.68,5.46,4l7.9,5.68c2.38,1.71,4.73,3.46,7.13,5.15a6.07,6.07,0,0,1,2.52,3.51c.59,2.24,1.29,4.45,1.93,6.68,1.37,4.81,2.71,9.63,4.1,14.44.41,1.46.89,2.89,1.38,4.32.19.57.45.61.84.15.6-.7,1.18-1.42,1.72-2.17q2.73-3.72,5.41-7.46c1.06-1.46,2.08-2.94,3.14-4.4,1.81-2.51,3.65-5,5.47-7.51a5.21,5.21,0,0,1,2.93-2.12c2.19-.6,4.36-1.29,6.54-1.91,5.17-1.47,10.34-2.91,15.5-4.38,1.28-.37,2.55-.8,3.81-1.23C1067.13,219.47,1067.17,219.19,1066.76,218.83Z" transform="translate(0 2.07)"/></g></g><g id="Shape_13_copy_2" data-name="Shape 13 copy 2" class="cls-1"><g id="Shape_13_copy_2-2" data-name="Shape 13 copy 2"><path class="cls-6" d="M975.85,23.77c-1.38,0-2.76,0-4.14.13-7.65.54-15.31,1.13-23,1.68-3.7.26-7.4.47-11.1.7a5.39,5.39,0,0,1-3.38-.84c-1.52-1-3.07-1.94-4.58-3-2.53-1.68-5-3.4-7.54-5.11-3.31-2.25-6.6-4.52-9.9-6.77-2.39-1.62-4.78-3.24-7.18-4.83-1-.66-2-1.27-3.08-1.84-.54-.3-.79-.11-.83.5a15.48,15.48,0,0,0,0,1.67c.19,3.17.39,6.33.62,9.5.32,4.55.68,9.09,1,13.64.3,4.11.53,8.22.87,12.33a8.55,8.55,0,0,1-1.5,5.88c-1.88,2.66-3.63,5.41-5.46,8.11-3.95,5.82-7.93,11.63-11.87,17.46-1.19,1.76-2.3,3.58-3.4,5.4-.44.72-.26,1,.59,1,1.3,0,2.6,0,3.89-.11q6.47-.42,12.92-.91c2.52-.18,5-.42,7.56-.6,4.34-.31,8.68-.58,13-.89a7.35,7.35,0,0,1,4.94,1.25c2.62,1.81,5.31,3.52,7.95,5.31,6.24,4.24,12.46,8.51,18.7,12.74,1.55,1,3.15,2,4.75,3,.66.4,1,.19,1-.57,0-1,0-2,0-3q-.5-7.17-1-14.35c-.27-3.72-.59-7.44-.84-11.16-.23-3.44-.4-6.88-.59-10.32a4.46,4.46,0,0,1,.62-2.47c.34-.6.68-1.21,1.07-1.78q3.73-5.58,7.5-11.13c2.46-3.63,5-7.24,7.42-10.87,1.71-2.53,3.37-5.1,5-7.65a10.08,10.08,0,0,0,.68-1.25,3.13,3.13,0,0,0,.15-.69A4.38,4.38,0,0,0,975.85,23.77Z" transform="translate(0 2.07)"/></g></g><g id="Shape_16_copy_2" data-name="Shape 16 copy 2" class="cls-1"><g id="Shape_16_copy_2-2" data-name="Shape 16 copy 2"><path class="cls-6" d="M953.37,419.83,887.65,438s-20.54,57.34-186.41,86.14L675,623.38c28.29-6.14,185-43,298.48-129.75Z" transform="translate(0 2.07)"/></g></g><g id="Shape_13_copy_3" data-name="Shape 13 copy 3" class="cls-1"><g id="Shape_13_copy_3-2" data-name="Shape 13 copy 3"><path class="cls-6" d="M676.31,196c-1.07,0-2.15,0-3.23.1-6,.42-11.93.88-17.9,1.31-2.88.2-5.77.37-8.66.54a4.16,4.16,0,0,1-2.63-.65c-1.18-.78-2.39-1.52-3.57-2.3-2-1.32-3.92-2.65-5.88-4-2.57-1.75-5.14-3.52-7.72-5.27-1.86-1.27-3.72-2.53-5.6-3.76-.78-.52-1.58-1-2.4-1.44-.41-.23-.61-.09-.64.39a11.28,11.28,0,0,0,0,1.3q.23,3.7.48,7.4c.25,3.55.53,7.09.79,10.63.23,3.2.41,6.41.67,9.61a6.62,6.62,0,0,1-1.17,4.58c-1.46,2.08-2.83,4.22-4.25,6.32-3.08,4.54-6.19,9.06-9.26,13.61-.93,1.37-1.79,2.79-2.65,4.2-.34.56-.2.81.46.81,1,0,2,0,3-.08,3.35-.22,6.71-.46,10.06-.71,2-.14,3.94-.32,5.9-.46,3.39-.25,6.77-.46,10.16-.7a5.72,5.72,0,0,1,3.84,1c2,1.41,4.15,2.75,6.2,4.14,4.87,3.3,9.71,6.63,14.58,9.93,1.21.81,2.46,1.57,3.71,2.32.51.31.77.15.79-.44,0-.79,0-1.58,0-2.37-.25-3.73-.52-7.46-.79-11.18-.21-2.9-.46-5.8-.65-8.7-.18-2.68-.31-5.36-.46-8a3.46,3.46,0,0,1,.49-1.93c.26-.47.53-.94.83-1.39,1.94-2.89,3.88-5.79,5.84-8.67s3.88-5.64,5.79-8.47c1.33-2,2.63-4,3.94-6a9.12,9.12,0,0,0,.53-1,2.22,2.22,0,0,0,.11-.54A2.91,2.91,0,0,0,676.31,196Z" transform="translate(0 2.07)"/></g></g></svg>